<?xml version="1.0" standalone="no"?>
<!DOCTYPE svg PUBLIC "-//W3C//DTD SVG 20010904//EN"
 "http://www.w3.org/TR/2001/REC-SVG-20010904/DTD/svg10.dtd">
<svg version="1.0" xmlns="http://www.w3.org/2000/svg"
 width="512.000000pt" height="512.000000pt" viewBox="0 0 512.000000 512.000000"
 preserveAspectRatio="xMidYMid meet">

<g transform="translate(0.000000,512.000000) scale(0.100000,-0.100000)"
fill="#000000" stroke="none">
<path d="M2405 5000 c-334 -21 -651 -107 -964 -264 l-91 -46 -655 0 c-642 0
-655 0 -675 -20 -20 -20 -20 -33 -20 -1688 l0 -1669 21 -19 c19 -17 41 -19
240 -22 l218 -3 67 -96 c401 -575 1007 -945 1699 -1038 160 -22 470 -22 630 0
309 41 605 138 870 286 109 61 285 179 359 242 35 30 38 35 27 55 -6 12 -28
29 -48 37 -75 32 -77 31 -147 -34 -41 -38 -74 -61 -88 -61 -27 0 -218 185
-218 210 0 9 27 42 60 75 44 43 60 67 60 86 0 38 -35 115 -55 123 -9 3 -52 6
-95 6 -110 0 -110 0 -110 161 0 165 3 169 123 169 68 0 87 3 99 18 15 18 48
94 48 113 0 6 -26 38 -59 72 -64 68 -73 84 -59 110 8 16 -75 17 -1680 17
-1299 0 -1691 3 -1700 12 -18 18 -17 2517 1 2542 12 17 123 18 2297 16 1526 0
2288 -4 2295 -11 7 -7 11 -429 13 -1243 l4 -1233 54 -54 c30 -29 54 -59 54
-67 0 -8 -27 -42 -60 -76 -42 -44 -60 -70 -60 -89 0 -38 29 -106 51 -117 10
-6 54 -10 98 -10 59 0 84 -4 95 -16 15 -14 16 130 16 1580 0 1583 0 1596 -20
1616 -20 20 -33 20 -675 20 l-655 0 -91 46 c-403 202 -830 290 -1274 264z"/>
<path d="M2385 3841 c-71 -33 -84 -47 -120 -123 -22 -47 -77 -107 -335 -362
-326 -322 -343 -335 -410 -316 -67 19 -130 -40 -114 -105 9 -36 -10 -55 -50
-48 -20 3 -44 -1 -62 -10 -16 -9 -138 -125 -271 -260 -243 -243 -243 -244
-243 -287 0 -41 4 -48 83 -127 129 -129 106 -138 410 165 137 136 255 261 263
278 7 17 10 41 7 52 -8 33 14 52 62 52 28 0 51 7 70 21 24 19 26 28 24 73 -5
106 -22 83 314 422 274 278 320 320 380 350 65 33 69 38 104 109 l37 75 -34
35 c-19 19 -39 35 -44 35 -6 0 -38 -13 -71 -29z"/>
</g>
</svg>
