<?xml version="1.0" standalone="no"?>
<!DOCTYPE svg PUBLIC "-//W3C//DTD SVG 20010904//EN"
 "http://www.w3.org/TR/2001/REC-SVG-20010904/DTD/svg10.dtd">
<svg version="1.0" xmlns="http://www.w3.org/2000/svg"
 width="150.000000pt" height="150.000000pt" viewBox="0 0 150.000000 150.000000"
 preserveAspectRatio="xMidYMid meet">

<g transform="translate(0.000000,150.000000) scale(0.100000,-0.100000)"
fill="#000000" stroke="none">
<path d="M545 1335 c-49 -24 -95 -44 -101 -44 -6 -1 -28 -17 -49 -37 -37 -37
-37 -37 -32 -103 6 -80 43 -310 51 -318 3 -4 6 13 6 36 0 23 7 56 16 72 22 43
75 88 103 89 14 0 33 7 43 16 14 14 20 14 33 4 8 -7 21 -10 28 -7 8 3 20 -3
27 -13 14 -20 35 -17 24 3 -4 7 -4 9 1 5 4 -4 13 -4 19 1 23 19 80 17 73 -3
-4 -10 4 -16 26 -20 57 -11 127 -66 85 -66 -59 0 -138 -53 -138 -92 0 -35 22
-116 36 -134 13 -18 14 -17 7 11 -3 16 -6 36 -5 45 0 8 -4 27 -10 42 -13 35 4
66 47 84 41 17 108 18 137 3 35 -19 34 2 -2 32 -29 25 -32 31 -20 39 8 5 20
10 27 10 20 0 52 -56 64 -111 6 -30 14 -67 19 -84 7 -27 8 -25 9 20 1 47 18
149 41 240 26 108 0 175 -93 239 -78 53 -154 75 -276 81 l-106 4 -90 -44z
m270 -265 c-3 -5 -13 -10 -21 -10 -8 0 -12 5 -9 10 3 6 13 10 21 10 8 0 12 -4
9 -10z"/>
<path d="M508 947 c-48 -19 -35 -39 20 -31 31 4 66 1 100 -9 50 -15 66 -11 40
10 -7 6 -34 15 -59 21 -26 7 -53 13 -60 16 -8 2 -26 -1 -41 -7z"/>
<path d="M875 887 c-21 -8 -30 -18 -27 -29 4 -20 46 -25 57 -8 4 6 12 4 21 -5
19 -19 35 -11 27 13 -6 17 -32 43 -42 41 -3 0 -20 -6 -36 -12z"/>
<path d="M538 875 c-33 -18 -36 -35 -7 -35 11 0 18 4 14 9 -3 5 -1 12 4 15 5
3 11 -1 15 -9 7 -20 56 -20 56 0 0 9 6 12 16 8 13 -5 13 -7 2 -14 -10 -7 -9
-9 5 -9 21 0 22 13 3 29 -23 20 -79 22 -108 6z"/>
<path d="M809 853 c-13 -16 -12 -17 4 -4 9 7 17 15 17 17 0 8 -8 3 -21 -13z"/>
<path d="M765 660 c-3 -5 -2 -10 4 -10 5 0 18 -3 28 -7 16 -6 16 -5 4 10 -15
19 -27 22 -36 7z"/>
<path d="M772 545 c-22 -12 -20 -13 25 -18 42 -5 76 4 62 17 -12 11 -67 13
-87 1z"/>
<path d="M626 541 c-31 -12 -4 -20 44 -14 34 5 40 8 25 14 -25 10 -45 10 -69
0z"/>
<path d="M728 473 c7 -3 16 -2 19 1 4 3 -2 6 -13 5 -11 0 -14 -3 -6 -6z"/>
<path d="M935 429 c-84 -67 -106 -78 -170 -84 -80 -9 -136 7 -188 53 -23 20
-51 43 -61 52 -40 32 -1 -18 75 -97 74 -77 76 -78 125 -77 27 0 56 -4 64 -9
26 -15 67 10 111 69 23 31 55 62 70 68 22 8 29 17 29 38 0 15 -1 28 -2 27 -2
0 -25 -18 -53 -40z"/>
<path d="M1010 360 c8 -15 8 -18 -4 -14 -11 4 -13 -11 -12 -80 0 -46 4 -88 9
-92 15 -15 22 10 20 77 -2 78 10 96 27 43 15 -44 0 -128 -28 -166 -21 -28 -44
-79 -39 -85 15 -14 212 91 201 108 -3 5 -22 16 -41 24 -25 11 -33 19 -26 26
11 11 58 -4 84 -27 10 -9 19 -11 23 -6 7 11 -70 72 -91 72 -7 0 -13 7 -13 15
0 19 3 19 53 -6 62 -32 94 -39 106 -25 11 13 5 26 -11 26 -5 0 -7 -4 -3 -9 3
-6 -32 7 -77 27 -53 24 -95 50 -116 75 -37 40 -81 53 -62 17z"/>
<path d="M452 354 c-5 -8 -22 -24 -38 -35 -16 -10 -23 -19 -16 -19 23 0 12
-28 -13 -34 -14 -4 -36 -18 -48 -32 -12 -14 -35 -31 -51 -38 -26 -10 -27 -13
-12 -25 14 -12 21 -9 51 23 19 21 46 38 59 39 31 3 39 -17 8 -21 -19 -3 -72
-58 -72 -75 0 -11 125 -75 187 -96 92 -31 98 -28 58 25 -44 57 -61 91 -86 162
-21 61 -24 107 -9 117 6 3 10 10 10 16 0 15 -18 10 -28 -7z"/>
<path d="M285 256 c-57 -28 -63 -34 -35 -29 32 5 110 46 110 58 0 8 -1 7 -75
-29z"/>
</g>
</svg>
